<svg id="Capa_1" enable-background="new 0 0 510 510" height="512" viewBox="0 0 510 510" width="512" xmlns="http://www.w3.org/2000/svg" xmlns:xlink="http://www.w3.org/1999/xlink"><linearGradient id="lg1"><stop offset="0" stop-color="#fe646f"/><stop offset=".593" stop-color="#fb2b3a"/><stop offset="1" stop-color="#c41926"/></linearGradient><linearGradient id="SVGID_1_" gradientUnits="userSpaceOnUse" x1="127.89" x2="439.55" xlink:href="#lg1" y1="400.86" y2="400.86"/><linearGradient id="SVGID_2_" gradientUnits="userSpaceOnUse" x1="48" x2="380.217" xlink:href="#lg1" y1="400.86" y2="400.86"/><linearGradient id="SVGID_3_" gradientUnits="userSpaceOnUse" x1="43.057" x2="461.119" y1="210.789" y2="210.789"><stop offset="0" stop-color="#f8f6f7"/><stop offset=".1788" stop-color="#f8f6f7"/><stop offset="1" stop-color="#e7e6f5"/></linearGradient><linearGradient id="SVGID_4_" gradientUnits="userSpaceOnUse" x1="84" x2="479.373" y1="210.789" y2="210.789"><stop offset="0" stop-color="#f8f6f7"/><stop offset="1" stop-color="#d1ceeb"/></linearGradient><linearGradient id="lg2"><stop offset="0" stop-color="#bbec6c"/><stop offset=".5857" stop-color="#78a91f"/><stop offset="1" stop-color="#02905d"/></linearGradient><linearGradient id="SVGID_5_" gradientUnits="userSpaceOnUse" x1="120.233" x2="438.874" xlink:href="#lg2" y1="210.789" y2="210.789"/><linearGradient id="SVGID_6_" gradientUnits="userSpaceOnUse" x1="68" x2="417.886" xlink:href="#lg2" y1="210.789" y2="210.789"/><linearGradient id="lg3"><stop offset="0" stop-color="#814aa0"/><stop offset=".4701" stop-color="#5b3374"/><stop offset="1" stop-color="#192a7d"/></linearGradient><linearGradient id="SVGID_7_" gradientUnits="userSpaceOnUse" x1="180.767" x2="356.283" xlink:href="#lg3" y1="210.789" y2="210.789"/><linearGradient id="SVGID_8_" gradientUnits="userSpaceOnUse" x1="60" x2="252.167" xlink:href="#lg3" y1="210.789" y2="210.789"/><g><path d="m365.32 369.44s-.01 0-.01.01c-12.72 7.82-26.32 14.33-40.64 19.33-21.81 7.65-45.26 11.8-69.67 11.8-1.53 0-3.06-.02-4.58-.06-16.64-.34-32.82-2.63-48.29-6.63-27.28-7.04-52.42-19.41-74.24-35.94v106.62c0 20.501 16.619 37.12 37.12 37.12 20.501 0 37.12-16.619 37.12-37.12v-9.301c0-14.571 12.992-25.571 27.406-23.436.095.014.189.028.284.042 11.799 1.727 20.6 11.743 20.6 23.667 0 20.504 16.621 37.125 37.125 37.125 20.504 0 37.125-16.621 37.125-37.125v-6.647c0-7.52 4.203-14.398 10.88-17.858.14-.073.281-.146.421-.219 13.359-6.966 29.339 2.792 29.339 17.859v24.203c0 20.501 16.619 37.12 37.12 37.12 20.501 0 37.12-16.619 37.12-37.12v-181.16c-17.64 31.87-43.29 58.68-74.23 77.72z" fill="url(#SVGID_1_)"/><path d="m439.55 291.72v181.16c0 10.25-4.15 19.53-10.87 26.25-6.72 6.71-16 10.87-26.25 10.87-7.37 0-14.23-2.15-20.01-5.85 2.26-1.45 4.35-3.13 6.24-5.02 6.72-6.72 10.87-16 10.87-26.25v-42.691c0-15.518-17.182-24.688-30.212-16.26-8.632 5.584-17.699 10.552-27.139 14.841-2.09.32-4.18.99-6.21 2.05-.14.07-.28.14-.42.22-.98.5-1.9 1.08-2.76 1.73-4.09 3.03-6.87 7.5-7.79 12.5-.22 1.18-.33 2.4-.33 3.63v6.64c0 10.26-4.15 19.54-10.87 26.26s-16 10.87-26.26 10.87c-7.36 0-14.23-2.14-20-5.85 2.26-1.44 4.35-3.13 6.24-5.02 6.72-6.72 11.37-16 11.37-26.26 0-5.834-5.027-10.351-10.837-9.823-6.36.578-12.8.873-19.313.873-2.13 0-4.25-.03-6.37-.1-3.14-7.65-10.17-13.35-18.81-14.62-.1-.01-.19-.02-.28-.04-9.09-1.34-17.62 2.53-22.67 9.24-.21.28-.42.56-.62.85-.02.03-.05.07-.07.1-2.55 3.75-4.05 8.3-4.05 13.25v9.3c0 10.25-4.15 19.53-10.87 26.25s-16 10.87-26.25 10.87c-7.37 0-14.23-2.14-20.01-5.85 2.26-1.44 4.35-3.13 6.24-5.02 6.72-6.72 10.87-16 10.87-26.25v-9.3c0-10.42 6.65-19.01 15.7-22.27.46-.17.91-.32 1.38-.46-18.5-7.13-35.75-16.79-51.3-28.58v-46.01c21.82 16.53 46.96 28.9 74.24 35.94 10.64 2.75 21.61 4.69 32.84 5.75h.01c5.09.48 10.24.77 15.44.88 1.52.04 3.05.06 4.58.06 24.41 0 47.86-4.15 69.67-11.8 14.32-5 27.92-11.51 40.64-19.33 0-.01.01-.01.01-.01 12.3-7.57 23.76-16.36 34.21-26.22 15.851-14.93 29.391-32.3 40.021-51.5z" fill="url(#SVGID_2_)"/><circle cx="255" cy="210.789" fill="url(#SVGID_3_)" r="210.789"/><path d="m255 0c-6.75 0-13.422.331-20.01.951 107.028 10.08 190.779 100.172 190.779 209.837s-83.75 199.757-190.779 209.837c6.588.62 13.26.951 20.01.951 116.415 0 210.789-94.373 210.789-210.789s-94.374-210.787-210.789-210.787z" fill="url(#SVGID_4_)"/><circle cx="255" cy="210.789" fill="url(#SVGID_5_)" r="127.807"/><path d="m255 82.982c-6.808 0-13.49.538-20.01 1.563 61.08 9.605 107.797 62.466 107.797 126.244s-46.717 116.638-107.797 126.243c6.52 1.025 13.202 1.563 20.01 1.563 70.586 0 127.807-57.221 127.807-127.807s-57.221-127.806-127.807-127.806z" fill="url(#SVGID_6_)"/><circle cx="255" cy="210.789" fill="url(#SVGID_7_)" r="70.4"/><path d="m255 140.389c-4.27 0-8.445.401-12.505 1.13 32.911 5.904 57.894 34.66 57.894 69.27s-24.983 63.366-57.894 69.27c4.061.728 8.235 1.13 12.505 1.13 38.881 0 70.4-31.519 70.4-70.4s-31.519-70.4-70.4-70.4z" fill="url(#SVGID_8_)"/></g></svg>