<svg id="Capa_1" enable-background="new 0 0 510 510" height="512" viewBox="0 0 510 510" width="512" xmlns="http://www.w3.org/2000/svg" xmlns:xlink="http://www.w3.org/1999/xlink"><linearGradient id="lg1"><stop offset="0" stop-color="#bbec6c"/><stop offset=".5857" stop-color="#78a91f"/><stop offset="1" stop-color="#02905d"/></linearGradient><linearGradient id="SVGID_1_" gradientUnits="userSpaceOnUse" x1="132.106" x2="396.83" xlink:href="#lg1" y1="123.797" y2="123.797"/><linearGradient id="SVGID_2_" gradientUnits="userSpaceOnUse" x1="62.547" x2="377.549" xlink:href="#lg1" y1="123.8" y2="123.8"/><linearGradient id="lg2"><stop offset="0" stop-color="#feb237"/><stop offset="1" stop-color="#fd6930"/></linearGradient><linearGradient id="SVGID_3_" gradientUnits="userSpaceOnUse" x1="-8.896" x2="547.484" xlink:href="#lg2" y1="323.645" y2="323.645"/><linearGradient id="SVGID_4_" gradientUnits="userSpaceOnUse" x1="8.55" x2="450.264" xlink:href="#lg2" y1="323.645" y2="323.645"/><linearGradient id="SVGID_6_" gradientUnits="userSpaceOnUse" x1="16.049" x2="228.436" xlink:href="#lg2" y1="326.09" y2="326.09"/><linearGradient id="SVGID_7_" gradientUnits="userSpaceOnUse" x1="-22.949" x2="214.613" xlink:href="#lg2" y1="323.645" y2="323.645"/><linearGradient id="lg3"><stop offset="0" stop-color="#814aa0"/><stop offset=".4701" stop-color="#5b3374"/><stop offset="1" stop-color="#192a7d"/></linearGradient><linearGradient id="SVGID_8_" gradientUnits="userSpaceOnUse" x1="38.548" x2="504.803" xlink:href="#lg3" y1="271.547" y2="271.547"/><linearGradient id="SVGID_10_" gradientUnits="userSpaceOnUse" x1="38.548" x2="504.803" xlink:href="#lg3" y1="395.765" y2="395.765"/><linearGradient id="SVGID_11_" gradientUnits="userSpaceOnUse" x1="-32.667" x2="210.004" xlink:href="#lg3" y1="360.79" y2="360.79"/><linearGradient id="SVGID_12_" gradientUnits="userSpaceOnUse" x1="-32.667" x2="210.004" xlink:href="#lg3" y1="395.765" y2="395.765"/><g><path d="m312.976 130.396c-13.266-9.61-18.442-26.922-12.555-42.208 8.215-21.327 15.767-38.73 22.014-50.433 5.792-10.851 1.689-24.344-9.164-30.136-4.795-2.559-18.107-5.355-20.238-5.985-11.975-3.541-24.346-1.691-30.138 9.161-10.58 19.822-23.977 52.765-38.082 93.047-3.048 8.704-9.328 15.852-17.482 20.161-22.918 12.113-38.008 32.703-38.008 56.081 0 37.284 38.358 67.509 85.676 67.509s85.676-30.225 85.676-67.509c.001-19.662-10.672-37.354-27.699-49.688z" fill="url(#SVGID_1_)"/><path d="m312.976 130.396c-13.266-9.61-18.442-26.922-12.555-42.208 8.215-21.327 15.768-38.73 22.014-50.433 5.792-10.851 1.689-24.344-9.164-30.136-4.795-2.559-18.107-5.355-20.238-5.985-9.559-2.827-19.361-2.201-25.877 3.68 2.444.746 4.654 1.536 6.095 2.305 10.853 5.792 14.956 19.285 9.164 30.136-6.247 11.703-13.8 29.106-22.014 50.433-5.888 15.286-.711 32.599 12.555 42.208 17.027 12.334 27.7 30.026 27.7 49.689 0 31.853-28.005 58.535-65.666 65.639 6.422 1.211 13.117 1.87 20.01 1.87 47.318 0 85.676-30.225 85.676-67.509 0-19.663-10.673-37.355-27.7-49.689z" fill="url(#SVGID_2_)"/><g><g><path d="m509.736 385.88-12.09-136.132c-3.021-34.009-31.511-60.082-65.655-60.082-3.413 0-6.766.272-10.046.775-15.125-23.136-41.229-38.251-70.625-38.251-12.754 0-24.882 2.86-35.773 7.969-16.209-14.266-37.44-22.869-60.548-22.869-23.107 0-44.338 8.603-60.548 22.869-10.891-5.109-23.019-7.969-35.773-7.969-29.395 0-55.499 15.115-70.625 38.251-3.28-.503-6.633-.775-10.046-.775-34.143 0-62.634 26.073-65.655 60.082l-12.088 136.132c-3.424 38.552 26.95 71.744 65.655 71.744h7.154c15.07 22.498 40.723 37.476 70.135 37.476h30.944c4.259 0 8.438-.321 12.518-.927 14.635 9.966 32.338 15.827 51.513 15.827h33.633c19.176 0 36.879-5.861 51.513-15.827 4.081.605 8.259.927 12.519.927h30.944c29.412 0 55.066-14.978 70.135-37.476h7.154c38.705 0 69.079-33.191 65.655-71.744z" fill="url(#SVGID_3_)"/><g fill="url(#SVGID_4_)"><path d="m363.137 410.21-16.816-189.35c-4.201-47.304-43.83-83.57-91.321-83.57-6.865 0-13.557.78-20.01 2.219 38.189 8.518 67.717 40.884 71.311 81.35l16.816 189.35c4.668 52.558-35.827 97.946-88.127 99.729 1.06.036 2.124.061 3.193.061h33.633c53.836.001 96.084-46.166 91.321-99.789z"/><path d="m509.736 385.88-12.09-136.132c-3.021-34.009-31.511-60.082-65.655-60.082-3.413 0-6.766.272-10.046.775-15.125-23.136-41.229-38.251-70.624-38.251-6.883 0-13.585.831-20.01 2.397 34.36 8.371 60.753 37.825 64.009 74.491l15.472 174.211c4.247 47.819-32.139 89.192-79.481 91.691 1.502.079 3.015.12 4.538.12h30.944c29.412 0 55.066-14.978 70.135-37.476h7.154c38.704 0 69.078-33.191 65.654-71.744zm-65.321 57.932c5.27-12.337 7.675-26.137 6.397-40.523l-15.472-174.212c-.924-10.399-3.726-20.207-8.025-29.13 16.752 10.659 28.437 28.698 30.311 49.8l12.09 136.132c2.073 23.339-8.253 44.698-25.301 57.933z"/></g><path d="m146.863 410.21 16.817-189.35c2.157-24.287 13.656-45.657 30.76-60.707-.825-.387-1.658-.761-2.497-1.122-9.217-3.959-19.933-1.758-27.003 5.357-14.612 14.703-24.308 34.379-26.27 56.471l-16.817 189.35c-2.75 30.96 10.172 59.433 31.946 77.971 5.292 4.506 12.053 6.92 19.004 6.92h1.35c4.259 0 8.438-.321 12.518-.927-26.452-18.012-42.875-49.44-39.808-83.963z" fill="url(#SVGID_6_)"/><path d="m59.188 403.288 15.472-174.211c1.265-14.242 6.038-27.383 13.395-38.637-3.28-.503-6.633-.775-10.046-.775-.054 0-.108 0-.162 0-9.729.024-18.588 5.958-22.27 14.964-3.121 7.632-5.163 15.84-5.928 24.448l-15.472 174.211c-1.067 12.015.433 23.622 4.027 34.307 3.978 11.828 15.027 19.989 27.506 20.028h.208 7.154c-10.308-15.388-15.664-34.295-13.884-54.335z" fill="url(#SVGID_7_)"/></g><g><circle cx="157.01" cy="271.547" fill="url(#SVGID_8_)" r="43.079"/><circle cx="352.991" cy="271.547" fill="url(#SVGID_8_)" r="43.079"/><path d="m394.306 339.602c-32.27 26.798-82.667 44.04-139.306 44.04s-107.036-17.242-139.306-44.04c-5.375-4.464-13.335.74-11.255 7.41 19.22 61.62 79.351 106.581 150.561 106.581 71.209 0 131.341-44.961 150.561-106.581 2.08-6.67-5.88-11.874-11.255-7.41z" fill="url(#SVGID_10_)"/></g><g><path d="m109.664 361.101c29.391 14.155 65.832 22.541 105.316 22.541 6.767 0 13.442-.253 20.01-.732-48.409-3.531-90.881-19.712-119.296-43.308-5.375-4.464-13.335.74-11.255 7.41 1.498 4.802 3.245 9.503 5.225 14.089z" fill="url(#SVGID_11_)"/><path d="m394.306 339.602c-9.774 8.117-21.22 15.35-33.99 21.5-21.015 48.662-68.413 84.424-125.326 91.291 6.553.791 13.231 1.201 20.01 1.201 71.209 0 131.341-44.961 150.561-106.581 2.08-6.671-5.88-11.875-11.255-7.411z" fill="url(#SVGID_12_)"/></g></g></g></svg>