<svg id="Capa_1" enable-background="new 0 0 510 510" height="512" viewBox="0 0 510 510" width="512" xmlns="http://www.w3.org/2000/svg" xmlns:xlink="http://www.w3.org/1999/xlink"><linearGradient id="SVGID_1_" gradientTransform="matrix(.707 .707 -.707 .707 -777.425 1229.624)" gradientUnits="userSpaceOnUse" x1="-20.48" x2="98.824" y1="-1215.883" y2="-1215.883"><stop offset="0" stop-color="#f8f6f7"/><stop offset=".1788" stop-color="#f8f6f7"/><stop offset="1" stop-color="#e7e6f5"/></linearGradient><linearGradient id="SVGID_2_" gradientUnits="userSpaceOnUse" x1="-207.653" x2="224.922" y1="394.065" y2="394.065"><stop offset="0" stop-color="#f8f6f7"/><stop offset="1" stop-color="#d1ceeb"/></linearGradient><linearGradient id="lg1"><stop offset="0" stop-color="#feb237"/><stop offset="1" stop-color="#fd6930"/></linearGradient><linearGradient id="SVGID_3_" gradientUnits="userSpaceOnUse" x1="182.853" x2="603.453" xlink:href="#lg1" y1="192.573" y2="192.573"/><linearGradient id="SVGID_4_" gradientUnits="userSpaceOnUse" x1="46.018" x2="509.396" xlink:href="#lg1" y1="207.266" y2="207.266"/><linearGradient id="SVGID_5_" gradientUnits="userSpaceOnUse" x1="42.427" x2="512.207" xlink:href="#lg1" y1="225.461" y2="225.461"/><linearGradient id="SVGID_6_" gradientUnits="userSpaceOnUse" x1="42.427" x2="512.207" xlink:href="#lg1" y1="196.195" y2="196.195"/><linearGradient id="SVGID_7_" gradientUnits="userSpaceOnUse" x1="42.427" x2="512.207" xlink:href="#lg1" y1="182.227" y2="182.227"/><linearGradient id="SVGID_8_" gradientUnits="userSpaceOnUse" x1="82.975" x2="450.607" xlink:href="#lg1" y1="192.573" y2="192.573"/><linearGradient id="SVGID_9_" gradientUnits="userSpaceOnUse" x1="148.789" x2="469.989" y1="212.388" y2="212.388"><stop offset="0" stop-color="#814aa0"/><stop offset=".4701" stop-color="#5b3374"/><stop offset="1" stop-color="#192a7d"/></linearGradient><g><g><path d="m9.042 500.958c-12.055-12.055-12.055-31.601 0-43.656l176.778-176.778c3.192-3.192 8.368-3.192 11.56 0l32.097 32.097c3.192 3.192 3.192 8.368 0 11.56l-176.779 176.777c-12.055 12.056-31.601 12.056-43.656 0z" fill="url(#SVGID_1_)"/><path d="m229.476 312.62-32.097-32.097c-3.192-3.192-8.368-3.192-11.56 0l-37.25 37.25c-3.322 3.322-3.489 8.767-.182 12.102.021.021.043.043.064.064l6.705 6.705c7.314 7.314 7.314 19.172 0 26.485l-136.189 136.192c-2.999 2.998-7.739 3.184-10.953.556.333.366.674.728 1.028 1.081 12.055 12.055 31.601 12.055 43.656 0l176.778-176.778c3.193-3.192 3.193-8.368 0-11.56z" fill="url(#SVGID_2_)"/></g><g><circle cx="317.426" cy="192.573" fill="url(#SVGID_3_)" r="192.573"/><path d="m206.712 87.284c26.945-26.945 61.676-42.956 99.241-46.057-3.225-.266-6.462-.449-9.708-.522-44.107-.983-85.447 15.557-116.47 46.579-19.845 19.844-34.635 43.351-43.96 69.868-.057.162-.113.323-.17.485-11.366 32.598-11.062 68.228.723 100.676 19.502 53.693 62.209 96.249 115.998 115.555-2.333-1.307-4.658-2.669-6.977-4.085-52.536-23.479-88.68-74.332-93.027-132.585-.023-.304-.045-.608-.066-.913-1.919-27.328 1.599-53.953 10.454-79.134 9.327-26.516 24.117-50.023 43.962-69.867z" fill="url(#SVGID_4_)"/><path d="m264.305 288.908c-38.032-38.033-38.032-99.917 0-137.949 12.464-12.464 27.996-20.018 44.186-22.709-25.104-4.172-51.796 3.382-71.122 22.709-38.032 38.032-38.032 99.916 0 137.949 26.689 26.689 62.916 38.079 97.533 34.106-25.746-2.933-50.797-14.306-70.597-34.106z" fill="url(#SVGID_5_)"/><path d="m327.93 175.708c12.628 12.628 13.13 32.862 1.504 46.095-1.244 1.416-2.952 2.827-4.866 4.08 4.621 3.332 10.304 4.878 16.188 4.275 5.193-.532 12.169-4.433 15.614-8.354 11.625-13.233 11.124-33.467-1.504-46.095-12.53-12.53-30.486-16.402-46.374-11.626 7.119 2.139 13.824 6.011 19.438 11.625z" fill="url(#SVGID_6_)"/><path d="m405.806 265.159c20.324-20.325 31.75-47.146 32.171-75.523.421-28.348-10.131-55.754-29.712-77.169-20.371-22.278-52.47-36.024-85.866-36.771-5.518-.123-10.981.11-16.367.68 29.503 3.088 57.087 16.176 75.297 36.091 19.581 21.415 30.133 48.821 29.712 77.169-.421 28.377-11.847 55.198-32.171 75.523-12.38 12.381-27.843 19.868-44.026 22.528 25.203 4.13 51.779-3.343 70.962-22.528z" fill="url(#SVGID_7_)"/><path d="m317.426 0c-6.757 0-13.432.352-20.01 1.031 96.952 10.01 172.563 91.945 172.563 191.543s-75.612 181.533-172.563 191.543c6.578.679 13.253 1.031 20.01 1.031 106.356-.001 192.574-86.219 192.574-192.575s-86.218-192.573-192.574-192.573z" fill="url(#SVGID_8_)"/><path d="m250.61 357.045c-38.748-29.166-62.949-74.074-66.398-123.21-3.281-46.73 12.434-89.987 44.248-121.802 24.201-24.202 56.527-37.104 90.939-36.336 33.396.747 65.495 14.493 85.866 36.771 19.581 21.415 30.133 48.821 29.712 77.169-.421 28.377-11.847 55.198-32.171 75.523-31.912 31.914-84.286 31.465-116.753-1-24.386-24.387-24.386-64.066 0-88.452 18.145-18.144 47.668-18.144 65.813 0 12.628 12.628 13.13 32.862 1.504 46.095-3.445 3.921-10.422 7.822-15.614 8.354-7.189.737-14.08-1.73-19.098-6.749-4.87-4.87-12.102-6.789-18.463-4.149-12.706 5.272-14.803 20.38-6.287 28.897 11.046 11.046 25.732 17.129 41.354 17.129s30.308-6.083 41.354-17.129c26.798-26.797 26.797-70.4 0-97.197-31.791-31.79-83.518-31.791-115.309 0-38.032 38.032-38.032 99.916 0 137.949 46.11 46.11 120.689 46.558 166.249 1 26.798-26.797 41.862-62.224 42.419-99.752.554-37.304-13.253-73.282-38.878-101.307-26.691-29.19-68.154-47.188-110.914-48.144-44.107-.983-85.447 15.557-116.47 46.579-19.845 19.844-34.635 43.351-43.96 69.868-8.855 25.181-12.373 51.806-10.454 79.134.021.304.043.609.066.913 4.771 63.937 47.838 118.975 108.853 138.67 12.542 4.048 25.646 6.845 39.166 8.244-15.9-6.563-31.508-15.578-46.774-27.068z" fill="url(#SVGID_9_)"/></g></g></svg>