<svg id="Capa_1" enable-background="new 0 0 510 510" height="512" viewBox="0 0 510 510" width="512" xmlns="http://www.w3.org/2000/svg" xmlns:xlink="http://www.w3.org/1999/xlink"><linearGradient id="SVGID_1_" gradientTransform="matrix(.707 .707 -.707 .707 -2126.329 230.167)" gradientUnits="userSpaceOnUse" x1="1640.063" x2="1759.367" y1="-1462.979" y2="-1462.979"><stop offset="0" stop-color="#f8f6f7"/><stop offset=".1788" stop-color="#f8f6f7"/><stop offset="1" stop-color="#e7e6f5"/></linearGradient><linearGradient id="SVGID_2_" gradientUnits="userSpaceOnUse" x1="-207.653" x2="224.922" y1="394.065" y2="394.065"><stop offset="0" stop-color="#f8f6f7"/><stop offset="1" stop-color="#d1ceeb"/></linearGradient><linearGradient id="lg1"><stop offset="0" stop-color="#feb237"/><stop offset="1" stop-color="#fd6930"/></linearGradient><linearGradient id="SVGID_3_" gradientUnits="userSpaceOnUse" x1="182.853" x2="603.453" xlink:href="#lg1" y1="192.573" y2="192.573"/><linearGradient id="SVGID_4_" gradientUnits="userSpaceOnUse" x1="71" x2="456.012" xlink:href="#lg1" y1="76.042" y2="76.042"/><linearGradient id="SVGID_5_" gradientUnits="userSpaceOnUse" x1="71" x2="456.012" xlink:href="#lg1" y1="244.586" y2="244.586"/><linearGradient id="SVGID_6_" gradientUnits="userSpaceOnUse" x1="71" x2="456.012" xlink:href="#lg1" y1="192.573" y2="192.573"/><linearGradient id="lg2"><stop offset="0" stop-color="#fff9df"/><stop offset=".593" stop-color="#ffe177"/><stop offset="1" stop-color="#feb237"/></linearGradient><linearGradient id="SVGID_7_" gradientUnits="userSpaceOnUse" x1="108.571" x2="543.808" xlink:href="#lg2" y1="192.573" y2="192.573"/><linearGradient id="SVGID_8_" gradientUnits="userSpaceOnUse" x1="57" x2="422.268" xlink:href="#lg2" y1="192.573" y2="192.573"/><g><g><path d="m9.042 500.958c-12.055-12.055-12.055-31.601 0-43.656l176.778-176.778c3.192-3.192 8.368-3.192 11.56 0l32.097 32.097c3.192 3.192 3.192 8.368 0 11.56l-176.779 176.777c-12.055 12.056-31.601 12.056-43.656 0z" fill="url(#SVGID_1_)"/><path d="m229.476 312.62-32.097-32.097c-3.192-3.192-8.368-3.192-11.56 0l-37.25 37.25c-3.322 3.322-3.489 8.767-.182 12.102.021.021.043.043.064.064l6.705 6.705c7.314 7.314 7.314 19.172 0 26.485l-136.189 136.192c-2.999 2.998-7.739 3.184-10.953.556.333.366.674.728 1.028 1.081 12.055 12.055 31.601 12.055 43.656 0l176.778-176.778c3.193-3.192 3.193-8.368 0-11.56z" fill="url(#SVGID_2_)"/></g><g><circle cx="317.426" cy="192.573" fill="url(#SVGID_3_)" r="192.573"/><g><circle cx="365.488" cy="76.042" fill="url(#SVGID_4_)" r="23.219"/><circle cx="192.822" cy="244.586" fill="url(#SVGID_5_)" r="23.219"/><path d="m317.426 0c-6.757 0-13.432.352-20.01 1.031 73.298 7.568 134.388 56.251 159.839 122.592-4.541-1.149-9.383-1.543-14.39-1.018-19.569 2.053-35.044 18.197-36.307 37.833-1.525 23.728 17.269 43.448 40.668 43.448.084 0 .168 0 .252-.001 12.268-.074 21.622 10.825 19.457 22.901-8.344 46.543-33.404 87.285-68.756 115.784l-242.669-242.67c-1.536-1.536-2.91-3.173-4.138-4.882-5.869 9.968-10.876 20.505-14.896 31.518l186.857 186.857c24.595 24.595 9.85 66.809-24.726 70.596-.396.043-.793.086-1.19.127 6.578.679 13.253 1.031 20.01 1.031 106.355 0 192.573-86.218 192.573-192.574s-86.218-192.573-192.574-192.573z" fill="url(#SVGID_6_)"/></g></g><path d="m405.771 358.826-254.597-254.597c-15.285-15.285-15.285-40.067 0-55.352l22.556-22.556c15.285-15.285 40.067-15.285 55.352 0l254.597 254.597c15.285 15.285 15.285 40.067 0 55.352l-22.556 22.556c-15.286 15.285-40.067 15.285-55.352 0z" fill="url(#SVGID_7_)"/><path d="m483.679 280.918-254.597-254.597c-12.932-12.932-32.661-14.92-47.686-5.969 2.734 1.628 5.313 3.616 7.666 5.969l254.597 254.597c15.285 15.285 15.285 40.067 0 55.352l-22.557 22.556c-2.353 2.353-4.932 4.341-7.666 5.969 15.025 8.951 34.754 6.963 47.686-5.969l22.557-22.556c15.285-15.286 15.285-40.067 0-55.352z" fill="url(#SVGID_8_)"/></g></svg>