<svg id="Capa_1" enable-background="new 0 0 510 510" height="512" viewBox="0 0 510 510" width="512" xmlns="http://www.w3.org/2000/svg" xmlns:xlink="http://www.w3.org/1999/xlink"><linearGradient id="lg1"><stop offset="0" stop-color="#feb237"/><stop offset="1" stop-color="#fd6930"/></linearGradient><linearGradient id="SVGID_1_" gradientTransform="matrix(.707 .707 -.707 .707 259.214 -103.861)" gradientUnits="userSpaceOnUse" x1="115.317" x2="460.564" xlink:href="#lg1" y1="266.569" y2="266.569"/><linearGradient id="SVGID_2_" gradientTransform="matrix(.707 .707 -.707 .707 259.214 -103.861)" gradientUnits="userSpaceOnUse" x1="83.107" x2="323.429" xlink:href="#lg1" y1="320.145" y2="320.145"/><linearGradient id="SVGID_3_" gradientTransform="matrix(.707 .707 -.707 .707 259.214 -103.861)" gradientUnits="userSpaceOnUse" x1="-22.676" x2="343.306" xlink:href="#lg1" y1="266.572" y2="266.572"/><linearGradient id="lg2"><stop offset="0" stop-color="#bbec6c"/><stop offset=".5857" stop-color="#78a91f"/><stop offset="1" stop-color="#02905d"/></linearGradient><linearGradient id="SVGID_4_" gradientTransform="matrix(.707 .707 -.707 .707 259.214 -103.861)" gradientUnits="userSpaceOnUse" x1="144.142" x2="440.056" xlink:href="#lg2" y1="329.022" y2="329.022"/><linearGradient id="SVGID_5_" gradientTransform="matrix(.707 .707 -.707 .707 259.214 -103.861)" gradientUnits="userSpaceOnUse" x1="129.773" x2="340.382" xlink:href="#lg2" y1="354.233" y2="354.233"/><linearGradient id="SVGID_6_" gradientTransform="matrix(.707 .707 -.707 .707 259.214 -103.861)" gradientUnits="userSpaceOnUse" x1="139.42" x2="442.057" xlink:href="#lg2" y1="184.883" y2="184.883"/><linearGradient id="SVGID_7_" gradientTransform="matrix(.707 .707 -.707 .707 259.214 -103.861)" gradientUnits="userSpaceOnUse" x1="-22.676" x2="416.433" xlink:href="#lg2" y1="155.973" y2="155.973"/><linearGradient id="SVGID_8_" gradientTransform="matrix(.707 .707 -.707 .707 259.214 -103.861)" gradientUnits="userSpaceOnUse" x1="71.819" x2="496.298" xlink:href="#lg1" y1="53.301" y2="53.301"/><linearGradient id="SVGID_9_" gradientTransform="matrix(.707 .707 -.707 .707 259.214 -103.861)" gradientUnits="userSpaceOnUse" x1="-36.175" x2="384.021" xlink:href="#lg1" y1="53.294" y2="53.294"/><linearGradient id="lg3"><stop offset="0" stop-color="#814aa0"/><stop offset=".4701" stop-color="#5b3374"/><stop offset="1" stop-color="#192a7d"/></linearGradient><linearGradient id="SVGID_10_" gradientUnits="userSpaceOnUse" x1="114.324" x2="254.349" xlink:href="#lg3" y1="286.343" y2="426.368"/><linearGradient id="SVGID_11_" gradientTransform="matrix(.707 .707 -.707 .707 319.644 -305.607)" gradientUnits="userSpaceOnUse" x1="272.936" x2="415.429" xlink:href="#lg3" y1="563.755" y2="563.755"/><linearGradient id="SVGID_12_" gradientTransform="matrix(.707 .707 -.707 .707 328.717 63.934)" gradientUnits="userSpaceOnUse" x1="2.722" x2="225.484" y1="443.261" y2="443.261"><stop offset="0" stop-color="#fff9df"/><stop offset=".593" stop-color="#ffe177"/><stop offset="1" stop-color="#feb237"/></linearGradient><linearGradient id="SVGID_13_" gradientTransform="matrix(.707 .707 -.707 .707 328.717 63.934)" gradientUnits="userSpaceOnUse" x1="30.227" x2="176.645" xlink:href="#lg1" y1="443.261" y2="443.261"/><linearGradient id="SVGID_14_" gradientTransform="matrix(.707 .707 -.707 .707 328.717 63.934)" gradientUnits="userSpaceOnUse" x1="53.544" x2="135.242" y1="443.261" y2="443.261"><stop offset="0" stop-color="#fe646f"/><stop offset=".593" stop-color="#fb2b3a"/><stop offset="1" stop-color="#c41926"/></linearGradient><linearGradient id="SVGID_15_" gradientTransform="matrix(.707 .707 -.707 .707 259.214 -103.861)" gradientUnits="userSpaceOnUse" x1="-3.177" x2="417.669" xlink:href="#lg2" y1="301.872" y2="301.872"/><g><path d="m179.918 405.705-69.235-69.235-5.005-7.833c-18.649-18.649-18.649-46.055 0-64.704l14.787-17.616 65.555-65.555 40.151-37.322 56.202-59.03 143.187 143.185-88.321 88.321-37.071 34.243-33.545 36.373-19.172 19.172c-18.649 18.649-48.884 18.649-67.533.001z" fill="url(#SVGID_1_)"/><path d="m260.514 214.084c-10.991-10.991-28.811-10.991-39.801 0l-116.208 116.207 39.802 39.802 116.208-116.208c10.99-10.991 10.99-28.81-.001-39.801z" fill="url(#SVGID_2_)"/><path d="m425.561 227.6-88.319 88.319-37.075 34.24-33.54 36.374-19.172 19.172c-18.651 18.651-48.891 18.651-67.543 0l-28.298-28.298c18.654 18.654 48.889 18.654 67.543 0l94.085-94.085c16.478-16.478 15.88-43.397-1.358-59.079-29.855-27.159-54.13-57.549-74.088-92.429l44.576-47.404z" fill="url(#SVGID_3_)"/><g><path d="m337.244 315.917-70.619 70.619-155.945-50.063-6.421-6.421c-18.646-18.646-18.646-48.882.007-67.536l16.2-16.2z" fill="url(#SVGID_4_)"/><path d="m161.584 352.815 70.622-70.622-60.256-19.346-67.445 67.444 6.184 6.185z" fill="url(#SVGID_5_)"/><path d="m425.561 227.6-22.755 22.755-29.741-9.546-187.044-60.047 68.045-68.045c-.799-1.379-1.577-2.765-2.34-4.165l4.922 1.584 75.773 24.325z" fill="url(#SVGID_6_)"/></g><path d="m332.421 134.46-75.773-24.325-2.581 2.581-17.685 17.685c18.817 32.887 42.734 63.035 70.429 89.138l66.254 21.27 29.741 9.546 22.755-22.755z" fill="url(#SVGID_7_)"/><path d="m243.245 92.357c36.789 74.776 99.59 137.578 174.366 174.366 15.845 7.796 32.953 6.078 43.387-4.356l.032-.032c44.1-44.1 59.589-111.473 41.659-181.2l-7.469-29.044c-4.555-17.715-19.629-32.78-37.345-37.324l-29.225-7.495c-69.677-17.87-136.984-2.369-181.05 41.698-10.433 10.434-12.151 27.542-4.355 43.387z" fill="url(#SVGID_8_)"/><path d="m502.69 81.136-7.469-29.045c-3.963-15.411-15.889-28.808-30.587-35.026.925 2.188 1.699 4.434 2.288 6.728l7.469 29.044c17.93 69.728 2.441 137.1-41.659 181.2l-.032.032c-10.434 10.434-27.542 12.152-43.387 4.356-31.437-15.466-60.744-35.545-86.905-59.163 32.561 36.066 71.864 66.139 115.203 87.462 15.845 7.795 32.953 6.078 43.387-4.356l.032-.032c44.1-44.1 59.59-111.473 41.66-181.2z" fill="url(#SVGID_9_)"/><g><path d="m99.552 450.218 178.648-178.648c10.991-10.991 10.991-28.811 0-39.801-10.991-10.991-28.811-10.991-39.801 0l-178.649 178.648c-10.991 10.991-10.991 28.811 0 39.801 10.991 10.991 28.811 10.991 39.802 0z" fill="url(#SVGID_10_)"/><path d="m278.199 231.769c-3.177-3.177-6.927-5.43-10.915-6.77 3.296 9.809 1.043 21.073-6.77 28.886l-178.648 178.648c-7.814 7.814-19.077 10.066-28.886 6.77 1.34 3.989 3.593 7.738 6.77 10.915 10.991 10.991 28.811 10.991 39.801 0l178.648-178.648c10.991-10.99 10.991-28.81 0-39.801z" fill="url(#SVGID_11_)"/></g><g><path d="m143.402 446.048c.109-.109.222-.219.34-.331 5.555-5.279 5.572-14.052.018-19.332-.124-.118-.244-.235-.358-.349-7.662-7.662-10.578-24.575-11.722-35.866-.631-6.225-5.557-11.154-11.782-11.787-11.295-1.149-28.271-4.122-35.934-11.786-.109-.109-.22-.223-.332-.341-5.278-5.554-14.05-5.572-19.329-.02-.119.125-.236.245-.351.36-7.662 7.662-24.575 10.578-35.866 11.722-6.225.631-11.154 5.557-11.787 11.782-1.149 11.295-4.122 28.271-11.786 35.934-.113.113-.23.227-.353.344-5.56 5.284-5.542 14.06.019 19.343.116.11.227.219.334.326 7.662 7.662 10.578 24.575 11.722 35.866.631 6.225 5.557 11.154 11.782 11.787 11.295 1.149 28.271 4.122 35.934 11.786.107.107.216.219.327.336 5.281 5.559 14.057 5.577 19.34.02.117-.123.232-.242.346-.355 7.662-7.662 24.575-10.578 35.866-11.722 6.225-.631 11.154-5.557 11.787-11.782 1.148-11.296 4.122-28.272 11.785-35.935z" fill="url(#SVGID_12_)"/><path d="m119.603 442.618c.072-.072.146-.144.224-.218 3.651-3.47 3.662-9.236.012-12.707-.082-.078-.16-.154-.236-.229-5.036-5.036-6.953-16.153-7.705-23.574-.415-4.092-3.652-7.331-7.744-7.747-7.424-.755-18.582-2.709-23.619-7.747-.072-.072-.144-.146-.218-.224-3.469-3.65-9.235-3.662-12.705-.013-.078.082-.155.161-.231.237-5.036 5.036-16.153 6.953-23.574 7.705-4.092.415-7.331 3.652-7.747 7.744-.755 7.424-2.709 18.582-7.747 23.619-.074.074-.151.149-.232.226-3.654 3.473-3.643 9.242.012 12.714.076.072.149.144.22.214 5.036 5.036 6.953 16.153 7.705 23.574.415 4.092 3.652 7.331 7.744 7.747 7.424.755 18.582 2.709 23.619 7.747.071.071.142.144.215.221 3.471 3.654 9.239 3.666 12.712.013.077-.081.153-.159.227-.233 5.036-5.036 16.153-6.953 23.574-7.705 4.092-.415 7.331-3.652 7.747-7.744.755-7.425 2.709-18.582 7.747-23.62z" fill="url(#SVGID_13_)"/><path d="m99.427 439.711c.04-.04.082-.08.125-.122 2.037-1.936 2.044-5.154.007-7.09-.046-.043-.089-.086-.131-.128-2.81-2.81-3.88-9.013-4.299-13.154-.231-2.283-2.038-4.091-4.321-4.323-4.143-.421-10.368-1.512-13.179-4.322-.04-.04-.081-.082-.122-.125-1.936-2.037-5.153-2.044-7.089-.007-.044.046-.087.09-.129.132-2.81 2.81-9.013 3.88-13.154 4.299-2.283.231-4.091 2.038-4.323 4.321-.421 4.143-1.512 10.368-4.322 13.179-.041.041-.085.083-.129.126-2.039 1.938-2.032 5.157.007 7.094.042.04.083.08.123.119 2.81 2.81 3.88 9.013 4.299 13.154.231 2.283 2.038 4.091 4.321 4.323 4.143.421 10.368 1.512 13.179 4.322.039.039.079.08.12.123 1.937 2.039 5.155 2.045 7.093.007.043-.045.085-.089.127-.13 2.81-2.81 9.013-3.88 13.154-4.299 2.283-.231 4.091-2.038 4.323-4.321.419-4.141 1.509-10.367 4.32-13.178z" fill="url(#SVGID_14_)"/></g><path d="m223.782 372.782 42.843 13.754 70.619-70.619-42.842-13.755z" fill="url(#SVGID_15_)"/></g></svg>