<svg id="Capa_1" enable-background="new 0 0 510 510" height="512" viewBox="0 0 510 510" width="512" xmlns="http://www.w3.org/2000/svg" xmlns:xlink="http://www.w3.org/1999/xlink"><linearGradient id="lg1"><stop offset="0" stop-color="#f8f6f7"/><stop offset=".1788" stop-color="#f8f6f7"/><stop offset="1" stop-color="#e7e6f5"/></linearGradient><linearGradient id="SVGID_1_" gradientUnits="userSpaceOnUse" x1="36" x2="312.773" xlink:href="#lg1" y1="461.851" y2="461.851"/><linearGradient id="lg2"><stop offset="0" stop-color="#f8f6f7"/><stop offset="1" stop-color="#d1ceeb"/></linearGradient><linearGradient id="SVGID_2_" gradientUnits="userSpaceOnUse" x1="-3.982" x2="75.991" xlink:href="#lg2" y1="478.562" y2="478.562"/><linearGradient id="SVGID_3_" gradientUnits="userSpaceOnUse" x1="294.667" x2="497.65" xlink:href="#lg2" y1="478.246" y2="478.246"/><linearGradient id="SVGID_4_" gradientUnits="userSpaceOnUse" x1="185.333" x2="467.412" xlink:href="#lg1" y1="466.933" y2="466.933"/><linearGradient id="SVGID_5_" gradientUnits="userSpaceOnUse" x1="163.729" x2="412.592" xlink:href="#lg1" y1="410.284" y2="410.284"/><linearGradient id="SVGID_6_" gradientUnits="userSpaceOnUse" x1="163.729" x2="412.592" xlink:href="#lg2" y1="410.28" y2="410.28"/><linearGradient id="SVGID_7_" gradientUnits="userSpaceOnUse" x1="96.816" x2="413.184" xlink:href="#lg1" y1="203.894" y2="203.894"/><linearGradient id="SVGID_8_" gradientUnits="userSpaceOnUse" x1="15.147" x2="388.164" xlink:href="#lg2" y1="203.894" y2="203.894"/><linearGradient id="lg3"><stop offset="0" stop-color="#814aa0"/><stop offset=".4701" stop-color="#5b3374"/><stop offset="1" stop-color="#192a7d"/></linearGradient><linearGradient id="SVGID_9_" gradientUnits="userSpaceOnUse" x1="84.973" x2="517.508" xlink:href="#lg3" y1="193.431" y2="193.431"/><linearGradient id="SVGID_10_" gradientUnits="userSpaceOnUse" x1="42.548" x2="369.618" xlink:href="#lg3" y1="193.431" y2="193.431"/><linearGradient id="SVGID_11_" gradientUnits="userSpaceOnUse" x1="109" x2="575.744" xlink:href="#lg2" y1="300.038" y2="300.038"/><linearGradient id="SVGID_12_" gradientUnits="userSpaceOnUse" x1="168" x2="448.017" xlink:href="#lg2" y1="277.158" y2="277.158"/><linearGradient id="lg4"><stop offset="0" stop-color="#fe646f"/><stop offset=".593" stop-color="#fb2b3a"/><stop offset="1" stop-color="#c41926"/></linearGradient><linearGradient id="SVGID_13_" gradientUnits="userSpaceOnUse" x1="60.088" x2="526.342" xlink:href="#lg4" y1="194.254" y2="194.254"/><linearGradient id="SVGID_14_" gradientUnits="userSpaceOnUse" x1="68" x2="245.695" xlink:href="#lg4" y1="185.737" y2="185.737"/><linearGradient id="SVGID_15_" gradientUnits="userSpaceOnUse" x1="17.009" x2="483.264" xlink:href="#lg4" y1="194.254" y2="194.254"/><linearGradient id="lg5"><stop offset="0" stop-color="#bbec6c"/><stop offset=".5857" stop-color="#78a91f"/><stop offset="1" stop-color="#02905d"/></linearGradient><linearGradient id="SVGID_16_" gradientUnits="userSpaceOnUse" x1="137.894" x2="297.908" xlink:href="#lg5" y1="194.254" y2="194.254"/><linearGradient id="SVGID_17_" gradientUnits="userSpaceOnUse" x1="103.333" x2="215.462" xlink:href="#lg5" y1="192.719" y2="192.719"/><linearGradient id="SVGID_18_" gradientUnits="userSpaceOnUse" x1="290.796" x2="450.81" xlink:href="#lg5" y1="194.254" y2="194.254"/><linearGradient id="SVGID_19_" gradientUnits="userSpaceOnUse" x1="106.004" x2="205.41" xlink:href="#lg1" y1="136.047" y2="136.047"/><linearGradient id="SVGID_21_" gradientUnits="userSpaceOnUse" x1="39.333" x2="247.566" xlink:href="#lg2" y1="108.413" y2="108.413"/><linearGradient id="SVGID_22_" gradientUnits="userSpaceOnUse" x1="88" x2="314.883" xlink:href="#lg1" y1="82.149" y2="82.149"/><linearGradient id="SVGID_23_" gradientUnits="userSpaceOnUse" x1="245" x2="435.168" xlink:href="#lg2" y1="107.866" y2="107.866"/><linearGradient id="SVGID_24_" gradientUnits="userSpaceOnUse" x1="78" x2="257.011" xlink:href="#lg1" y1="336.733" y2="336.733"/><linearGradient id="SVGID_25_" gradientUnits="userSpaceOnUse" x1="71" x2="340.67" xlink:href="#lg2" y1="345.531" y2="345.531"/><linearGradient id="SVGID_26_" gradientUnits="userSpaceOnUse" x1="101" x2="391.007" xlink:href="#lg1" y1="286.981" y2="286.981"/><linearGradient id="SVGID_27_" gradientUnits="userSpaceOnUse" x1="220" x2="488.701" xlink:href="#lg2" y1="315.217" y2="315.217"/><linearGradient id="SVGID_28_" gradientUnits="userSpaceOnUse" x1="210" x2="361.501" xlink:href="#lg4" y1="178.63" y2="178.63"/><linearGradient id="SVGID_29_" gradientUnits="userSpaceOnUse" x1="20" x2="194.809" xlink:href="#lg1" y1="466.933" y2="466.933"/><linearGradient id="SVGID_30_" gradientUnits="userSpaceOnUse" x1="66.667" x2="321.4" xlink:href="#lg2" y1="466.933" y2="466.933"/><g><path d="m483.247 510c28.016 0 37.138-37.644 12.223-50.457-54.017-27.78-141.601-45.84-240.47-45.84s-186.454 18.06-240.47 45.84c-24.915 12.813-15.794 50.457 12.223 50.457z" fill="url(#SVGID_1_)"/><path d="m122 497.622c-29.883-17.767-56.727-34.842-79.401-50.498-10.136 3.875-19.525 8.024-28.069 12.418-24.915 12.814-15.794 50.458 12.223 50.458h95.247z" fill="url(#SVGID_2_)"/><path d="m359.212 510h124.035c28.016 0 37.138-37.644 12.223-50.458-9.016-4.636-18.986-8.995-29.769-13.052z" fill="url(#SVGID_3_)"/><path d="m391.557 510c36.666-20.799 68.04-40.776 89.738-57.172-27.832-12.223-62.611-22.161-102.062-28.963-24.05 14.756-52.106 30.631-81.888 46.173-28.747 15.002-57.089 28.646-82.725 39.962z" fill="url(#SVGID_4_)"/><path d="m311.758 456.355h-113.516c-21.121 0-38.242-17.122-38.242-38.242v-53.899h190v53.899c0 21.12-17.122 38.242-38.242 38.242z" fill="url(#SVGID_5_)"/><path d="m350 364.21v53.9c0 21.119-17.121 38.24-38.24 38.24h-40.02c6.864 0 13.305-1.808 18.874-4.975 13.99-7.955 5.849-29.543-9.973-26.595-9.023 1.682-18.459 3.019-25.642 3.019-35.65 0-68.55-11.79-95-31.69v-31.9h190.001z" fill="url(#SVGID_6_)"/><g><path d="m255 407.788c-87.363 0-158.184-70.821-158.184-158.184v-91.419c0-87.364 70.821-158.185 158.184-158.185 87.363 0 158.184 70.821 158.184 158.184v91.419c0 87.363-70.821 158.185-158.184 158.185z" fill="url(#SVGID_7_)"/><path d="m255 0c-6.779 0-13.457.428-20.01 1.255 55.546 7.012 102.105 42.832 124.266 92.016-21.21 6.274-46.994 15.711-75.146 27.469-4.664-1.507-9.364-3.062-14.093-4.662-59.129-20.017-110.547-43.104-135.253-60.663-5.346 6.248-10.218 12.913-14.55 19.948 27.699 17.763 75.933 39.492 131.768 59.335-14.404 6.497-29.165 13.464-44.031 20.816-41.606 20.562-80.346 42.245-111.136 61.895v32.195c.056.03.067.036.123.067 33.218-22.283 78.231-47.963 127.126-72.127 12.384-6.125 24.698-11.99 36.798-17.542 17.645-8.097 37.619-9.642 56.251-4.188 5.834 1.708 11.582 3.338 17.226 4.884 22.92 6.281 38.826 27.081 38.826 50.846v38.06c0 80.585-60.259 147.093-138.174 156.929 6.554.827 13.232 1.255 20.01 1.255 87.363 0 158.184-70.821 158.184-158.184v-91.419c-.001-87.364-70.822-158.185-158.185-158.185zm69.498 132.863c15.564-6.085 30.149-11.328 43.324-15.558 2.338 8.766 3.943 17.832 4.744 27.128-14.495-2.879-30.736-6.786-48.068-11.57z" fill="url(#SVGID_8_)"/><path d="m99.816 158.184v91.419c0 5.914.335 11.748.968 17.494h309.433c.632-5.745.968-11.58.968-17.494l2-18.741v-72.678c0-1.064-.011-2.126-.032-3.186-.241-12.129-3.854-23.922-6.677-35.235h-272.374c-18.481 0-33.591 14.678-34.199 33.149-.058 1.751-.087 3.508-.087 5.272z" fill="url(#SVGID_9_)"/><path d="m224.064 177.544c12.384-6.125 24.698-11.99 36.798-17.542 17.645-8.097 37.619-9.642 56.251-4.188 5.834 1.708 11.582 3.338 17.226 4.884 22.92 6.281 38.825 27.081 38.825 50.846v38.06c0 5.914-.333 11.749-.966 17.494h38.018c.632-5.745.968-11.58.968-17.494l2-18.741v-72.678c0-1.064-.011-2.126-.032-3.186-.241-12.129-3.854-23.922-6.677-35.235h-194.21c12.649 5.034 25.95 10.041 39.717 14.934-14.404 6.497-29.165 13.464-44.031 20.816-41.606 20.562-77.346 42.245-108.136 61.895v32.195c.056.03.067.036.123.067 33.219-22.284 75.231-47.964 124.126-72.127z" fill="url(#SVGID_10_)"/><path d="m413.184 230.862c-19.264 3.391-39.883 7.627-61.085 12.608-65.671 15.428-123.248 34.761-150.263 50.456-8.781 5.101-10.46 16.578-6.421 33.771.607 2.583 3.45 18.544 5.763 24.532 5.235 13.55 16.596 20.396 25.376 15.299 24.641-14.315 80.957-33.055 143.473-47.741 10.083-2.369 20.065-4.568 29.841-6.589 8.556-19.462 13.315-40.97 13.315-63.593v-18.743z" fill="url(#SVGID_11_)"/><path d="m373.164 238.729v10.875c0 26.676-6.613 51.805-18.275 73.851 4.998-1.246 10.044-2.472 15.138-3.668 10.083-2.369 20.065-4.568 29.841-6.589 8.556-19.462 13.315-40.97 13.315-63.593v-18.741c-12.812 2.254-26.234 4.891-40.019 7.865z" fill="url(#SVGID_12_)"/><g><g><circle cx="178.549" cy="194.254" fill="url(#SVGID_13_)" r="43.079"/><path d="m219.2 179.957c-26.67 13.31-52.1 27.02-74.97 40.34-5.5-7.23-8.76-16.25-8.76-26.04v-.18c.1-23.72 19.35-42.9 43.08-42.9 8.78 0 16.95 2.63 23.76 7.14 7.75 5.13 13.75 12.71 16.89 21.64z" fill="url(#SVGID_14_)"/><circle cx="331.451" cy="194.254" fill="url(#SVGID_15_)" r="43.079"/></g><circle cx="178.549" cy="194.254" fill="url(#SVGID_16_)" r="14.784"/><path d="m178.549 179.47c-8.165 0-14.784 6.619-14.784 14.784 0 4.777 2.275 9.012 5.79 11.715 7.716-4.247 15.637-8.503 23.726-12.747-.532-7.682-6.915-13.752-14.732-13.752z" fill="url(#SVGID_17_)"/><circle cx="331.451" cy="194.254" fill="url(#SVGID_18_)" r="14.784"/></g><path d="m347.34 102.877c-18.65 2.78-49.74 13.3-85.29 28.51-15.64 6.68-32.15 14.28-48.83 22.53-49.96 24.69-94.28 51.6-116.4 70.47v-66.2c0-10.65 1.06-21.05 3.06-31.11 18.26-11.44 39.66-23.55 62.84-35.49 5.17-2.66 10.44-5.32 15.77-7.95 29.11-14.39 57.34-26.71 81.93-35.93 8.15 3 16.52 5.95 25.02 8.83 25.05 8.48 49.55 15.71 71.48 21.21 3.49 12.77-.56 23.77-9.58 25.13z" fill="url(#SVGID_19_)"/><path d="m347.34 102.877c-18.65 2.78-49.74 13.3-85.29 28.51-15.64 6.68-32.15 14.28-48.83 22.53-49.96 24.69-94.28 51.6-116.4 70.47v-66.2c0-10.65 1.06-21.05 3.06-31.11 18.26-11.44 39.66-23.55 62.84-35.49 5.17-2.66 10.44-5.32 15.77-7.95 29.11-14.39 57.34-26.71 81.93-35.93 8.15 3 16.52 5.95 25.02 8.83 25.05 8.48 49.55 15.71 71.48 21.21 3.49 12.77-.56 23.77-9.58 25.13z" fill="url(#SVGID_19_)"/><path d="m270.017 116.077c-32.562-11.023-62.772-22.975-87.484-34.425-1.346.659-2.693 1.317-4.043 1.984-5.33 2.63-10.6 5.29-15.77 7.95-2.257 1.163-4.492 2.327-6.715 3.493 26.688 13.085 60.373 27.01 97.326 40.094 2.93-1.289 5.844-2.558 8.719-3.786 8.383-3.587 16.513-6.908 24.295-9.934-5.397-1.73-10.841-3.518-16.328-5.376z" fill="url(#SVGID_21_)"/><path d="m201.458 9.3c-27.378 9.848-51.252 27.031-69.258 49.18.245.207.478.424.74.618 23.938 17.711 76.463 41.46 137.078 61.979 58.379 19.762 112.606 32.581 143.127 33.921-.595-30.118-9.602-58.174-24.777-81.908-26.801-5.72-59.513-14.859-93.214-26.267-35.402-11.984-68.414-25.293-93.696-37.523z" fill="url(#SVGID_22_)"/><path d="m372.924 149.504c15.774 3.121 29.472 5.022 40.22 5.494-.595-30.118-9.602-58.174-24.777-81.908-14.743-3.146-31.28-7.333-48.78-12.357 19.369 24.731 31.531 55.374 33.337 88.771z" fill="url(#SVGID_23_)"/><path d="m247.358 298.185c-60.014-14.099-115.414-22.262-148.31-22.02 5.259 31.098 19.59 59.107 40.18 81.215 26.629 3.659 57.909 9.535 90.201 17.121 29.749 6.989 58.084 14.895 82.28 22.806 29.161-11.203 54.165-30.786 72.055-55.809-30.296-14.159-80.399-30.156-136.406-43.313z" fill="url(#SVGID_24_)"/><path d="m352.063 328.584c-3.305 5.724-6.978 11.207-10.951 16.449-27.927-10.206-64.313-20.876-103.094-29.987-53.135-12.483-103.551-20.345-134.949-21.292 0 0 4.345 14.235 9.877 25.496 31.539 2.067 77.199 9.56 125.073 20.807 18.395 4.321 36.245 8.993 52.911 13.801 14.912 4.301 17.452 24.35 4.072 32.214-2.297 1.35-4.631 2.643-7 3.879 8.249 2.433 16.179 4.895 23.708 7.356 29.161-11.203 54.165-30.786 72.055-55.809-8.954-4.184-19.648-8.529-31.702-12.914z" fill="url(#SVGID_25_)"/><path d="m238.018 315.046c54.746 12.861 104.736 28.83 132.865 42.215 17.362-18.679 30.26-41.558 37.004-66.949-.529-.403-1.083-.782-1.677-1.126-27.015-15.694-84.592-35.028-150.263-50.456-65.672-15.427-125.835-23.754-157.012-21.73-.722.047-1.427.159-2.119.319v32.285c0 15.325 2.187 30.137 6.253 44.151 31.398.946 81.814 8.809 134.949 21.291z" fill="url(#SVGID_26_)"/><path d="m406.209 289.186c-8.684-5.045-20.541-10.467-34.795-16.014-3.993 26.728-14.674 51.267-30.284 71.868 11.488 4.199 21.553 8.32 29.751 12.221 17.362-18.679 30.26-41.558 37.004-66.949-.528-.402-1.083-.781-1.676-1.126z" fill="url(#SVGID_27_)"/><path d="m374.53 194.254c0-23.792-19.287-43.079-43.079-43.079-6.273 0-12.228 1.352-17.604 3.763 1.092.27 2.181.558 3.265.875 5.834 1.708 11.582 3.338 17.226 4.884 21.145 5.795 36.309 23.95 38.532 45.388 1.074-3.761 1.66-7.726 1.66-11.831z" fill="url(#SVGID_28_)"/></g><path d="m118.443 510h176.936c-25.636-11.316-53.978-24.96-82.725-39.962-29.782-15.542-57.838-31.417-81.888-46.173-39.451 6.802-74.229 16.739-102.062 28.963 21.7 16.396 53.073 36.373 89.739 57.172z" fill="url(#SVGID_29_)"/><path d="m212.655 470.038c-29.782-15.542-57.838-31.417-81.888-46.173-13.985 2.411-27.368 5.224-40.078 8.385 20.706 12.296 43.779 25.152 67.992 37.788 28.747 15.002 57.089 28.646 82.725 39.962h53.973c-25.635-11.316-53.978-24.96-82.724-39.962z" fill="url(#SVGID_30_)"/></g></svg>